<svg id="Layer_1" data-name="Layer 1" xmlns="http://www.w3.org/2000/svg" viewBox="0 0 102.97 102.97"><defs><style>.cls-1{fill:#fff;}.cls-2{fill:#ee243c;}</style></defs><title>Berklee_Online_Rev_Color</title><rect class="cls-1" width="102.97" height="102.97"/><path class="cls-2" d="M55.05,47L31.72,55.47a1,1,0,0,0-.63.9V71.6a1,1,0,0,0,1.29.9l21.41-7.79a3.88,3.88,0,0,0,2.55-3.64V47.88a1,1,0,0,0-1.29-.9"/><path class="cls-2" d="M56.35,78.26L27.27,88.84a8.74,8.74,0,0,1-11.72-8.21V0H0V103H56.35V78.26"/><path class="cls-2" d="M31.09,0V35.69a3.88,3.88,0,0,0,5.2,3.64l23.88-8.69a8.74,8.74,0,0,1,11.72,8.21V103H103V0H31.09"/></svg>