<?xml version="1.0" encoding="utf-8"?>
<!-- Generator: Adobe Illustrator 21.0.0, SVG Export Plug-In . SVG Version: 6.00 Build 0)  -->
<svg version="1.1" id="Layer_1" xmlns="http://www.w3.org/2000/svg" xmlns:xlink="http://www.w3.org/1999/xlink" x="0px" y="0px"
	 viewBox="0 0 278.3 159.5" style="enable-background:new 0 0 278.3 159.5;" xml:space="preserve">
<style type="text/css">
	.st0{fill:#FFFFFF;}
</style>
<title>UPCEA AWARD</title>
<path class="st0" d="M91.9,119.1l0.2,0.3h1.4c31.1,0,62.2,0,93.3,0c0.5-0.1,1.1-0.2,1.6-0.4c-0.5-0.3-1.1-0.4-1.6-0.5
	c-31.1,0-62.1,0-93.2,0c-0.3-0.1-0.7-0.1-1,0C92.3,118.5,92.1,118.8,91.9,119.1z M241.5,15l-0.2,0.5c1.1,1.2,2.1,2.5,3.3,3.7
	c2.2,2.4,4.9,4.1,8,5c2,0.6,4.2,0.5,6.1-0.5c0.4-0.3,0.6-0.7,0.5-1.1c-0.4-1-0.9-2-1.6-2.8c-2.1-2.2-4.8-3.5-7.8-3.8
	C247.1,15.5,244.3,15.3,241.5,15z M11.4,79.1c1.4,0.6,2.4,1.1,3.5,1.5c3.6,1.4,7.3,2.3,11.2,1.4c2.2-0.4,4.1-1.2,5.2-3.4
	c-1.2-1.7-2.9-2.8-4.9-3.2C21,74.4,16.3,76.5,11.4,79.1z M278.3,43.7c-4.3,0.8-8.1,1.9-11.4,4.2c-1.8,1.1-3.1,2.8-3.8,4.8
	c-0.2,1.1-0.4,2.2-0.4,3.3c1.2,0.1,2.5,0.5,3.6,0.2C272.6,54.3,275.5,49.2,278.3,43.7z M266.8,79.2c-3.1-2-6.7-3.3-10.3-3.8
	c-3.4-0.4-6.5,0-9,2.7c-0.6,0.6-0.7,1.1,0,1.5c1.1,0.9,2.3,1.7,3.6,2.2C256.5,83.4,261.6,81.5,266.8,79.2z M36.8,15.5l-0.1-0.4
	c-1.7,0.1-3.4,0.1-5.1,0.2c-3.3,0.1-6.5,1.1-9.4,2.9c-1.6,1-2.7,2.5-3.2,4.2c-0.1,0.4,0.1,0.7,0.3,1c1.5,0.9,3.3,1.3,5,1
	C29.9,23.5,33.6,19.8,36.8,15.5z M258.4,91.5c-3.3-3.8-6.5-7-11.1-8.4c-2.1-0.7-4.4-0.6-6.4,0.3c-1,0.4-1.1,0.9-0.7,1.8
	c0.7,1.6,1.8,2.9,3.3,3.7C247.9,91.6,252.9,91.8,258.4,91.5L258.4,91.5z M16.3,35.6c1.5,0.7,3.2,0.9,4.8,0.5c6-1.5,9-6.1,11.9-11.4
	c-1.1,0.2-2,0.3-2.9,0.5c-3.7,0.8-7.3,1.8-10.3,4.2C17.7,30.8,16.4,33.1,16.3,35.6z M47.8,106c0.2,0.1,0.3,0.1,0.3,0.1
	c0.6-0.2,1.2-0.3,1.8-0.5c3.9-1.3,7.6-2.8,10.5-5.8c1.4-1.4,2.3-3.3,2.5-5.2c0.1-1-0.2-1.5-1.3-1.5c-2.3-0.2-4.5,0.5-6.3,1.8
	C51.5,97.7,49.5,101.7,47.8,106z M222.8,73.3c-3.7,3.3-6.5,6.8-7.8,11.3c-0.6,2.1-0.4,4.3,0.5,6.2c0.7,1.5,1,1.6,2.5,0.8
	c1.6-1,2.9-2.4,3.6-4.2C223.4,83,223.1,78.4,222.8,73.3L222.8,73.3z M230.6,106.2c-1.7-4.4-3.7-8.2-7.2-11.1
	c-1.9-1.6-4.4-2.4-6.9-2.1c-0.9,0.1-1.2,0.4-1.2,1.3c0.2,2.5,1.4,4.8,3.4,6.3C222,103.5,226.1,105,230.6,106.2L230.6,106.2z
	 M55.5,73.3c-0.5,5.2-0.8,10,1.5,14.5c0.9,1.5,2,2.7,3.4,3.7c1.3,1,1.7,0.8,2.3-0.7c0.4-1,0.7-2.1,0.8-3.2
	C63.6,81.6,59.8,77.5,55.5,73.3z M20.1,91.2l0.1,0.4c1.6,0,3.1,0.1,4.7,0c3.6-0.2,7.2-0.8,10.3-2.9c1.4-0.9,2.4-2.2,3-3.8
	c0.2-0.7,0.2-1.1-0.5-1.3c-1.1-0.4-2.3-0.7-3.5-0.9C27.8,82.8,24,87,20.1,91.2z M245.3,24.7c2.5,4.5,5.1,8.5,9.8,10.7
	c1.8,0.9,3.8,1.1,5.8,0.6c1-0.2,1.2-0.7,1-1.6c-0.4-2-1.6-3.8-3.2-5C254.8,26.5,250.2,25.5,245.3,24.7z M242.6,97.3
	c-3.3-3.7-6.7-6.6-11.1-7.9c-2.3-0.7-4.8-0.5-6.9,0.6c-0.5,0.2-0.8,0.7-0.6,1.3c0,0.1,0.1,0.1,0.1,0.2c0.8,1.7,2.1,3.1,3.8,3.9
	C232.3,97.9,237.2,97.6,242.6,97.3z M270.9,12.3c-3.5,3-6.5,6-8.1,10c-1,2.2-1.1,4.8-0.2,7.1c0.6,1.5,1,1.7,2.5,0.9
	c2.2-1.3,3.8-3.4,4.6-5.8C271,20.6,271,16.7,270.9,12.3L270.9,12.3z M2.6,26.7c0.1,1.3,0.2,2.2,0.3,3.1c0.6,3.9,1.5,7.7,3.9,10.9
	c1.1,1.5,2.6,2.7,4.4,3.2c0.9,0.3,1.7,0.2,1.8-1c0.2-1.1,0.3-2.2,0.2-3.4C12.2,33.3,7.6,30.1,2.6,26.7z M248.9,35.6
	c1.2,4.2,2.6,8,5.4,11.1c2.2,2.4,4.9,3.8,8.4,3.3c0.5-1.8,0.2-3.7-0.8-5.2C259,39.9,254.1,37.8,248.9,35.6L248.9,35.6z M47,67.5
	c-1.5,4.6-2.7,8.9-2,13.6c0.4,2.7,1.5,5,4,6.3c1.5-1.2,2.4-2.9,2.8-4.7C52.8,76.8,50,72.3,47,67.5z M251,74c1.2-1.3,1.9-3,1.9-4.7
	c0.1-5.8-3-10.1-6.3-14.8c-1.2,4.6-2,8.8-0.8,13.2C246.5,70.6,248,72.8,251,74z M36,96.9v0.5c1.4,0,2.9,0,4.3,0
	c3.6,0,7.1-0.3,10.3-2.2c1.9-0.9,3.3-2.7,3.8-4.8c-2.6-1.8-6-2-8.9-0.7C41.7,91.2,38.7,93.9,36,96.9z M29,45.3
	c-0.9,0.8-1.6,1.4-2.3,2c-2.7,2.3-4.8,5.2-6.3,8.4c-1,2.1-1.1,4.5-0.4,6.7c0.3,0.8,0.7,1.2,1.5,0.7c1.3-0.7,2.8-1.3,3.7-2.4
	C29,56.4,29.2,51,29,45.3L29,45.3z M31.8,54.6c-2.4,3.1-4.5,6-5.5,9.5c-0.5,2-0.8,4-0.8,6.1c0,1.5,0.7,2.9,1.8,3.9
	c2.2-0.8,3.9-2.6,4.7-4.8C33.9,64.4,33,59.6,31.8,54.6L31.8,54.6z M38,63.1h-0.5c-0.8,2.5-1.8,5-2.5,7.5c-0.9,2.9-0.9,6,0.2,8.8
	c0.5,1.4,1.5,2.6,2.8,3.3c1.7-1.1,2.9-3,3.3-5C42.3,72.4,40.5,67.7,38,63.1z M231.2,67.5c-2.4,3.7-4.5,7.2-4.9,11.3
	c-0.4,3.2,0.2,6.2,2.9,8.5c2.1-1.2,3.5-3.2,3.8-5.5C234,77,232.9,72.4,231.2,67.5L231.2,67.5z M274.9,62.7
	c-3.8-0.7-7.7-0.7-11.4,0.1c-3.2,0.8-5.7,2.4-7.1,5.6c-0.3,0.7-0.3,1.2,0.5,1.4c1.3,0.5,2.6,0.8,4,0.8
	C266.8,70.3,270.7,66.6,274.9,62.7L274.9,62.7z M240.3,82.8c1.6-1.1,2.7-2.7,3.1-4.6c0.6-2.9,0.5-5.8-0.4-8.6
	c-0.7-2.2-1.5-4.4-2.4-6.9c-2.3,4-3.8,7.8-3.9,12C236.6,77.9,237.4,80.8,240.3,82.8z M7.7,12.6l-0.5,0.1c0.1,2.4,0.1,4.8,0.4,7.2
	C8,22,8.6,24.1,9.4,26.1c0.8,1.9,2.3,3.5,4.2,4.4c0.9,0.4,1.7,0.4,1.9-0.7c0.4-1.3,0.7-2.7,0.7-4.1C15.7,19.8,11.7,16.2,7.7,12.6z
	 M29.4,35.6c-4.5,1.8-8.5,3.7-11.5,7c-1.5,1.6-2.4,3.7-2.5,6c0,1.3,0.5,1.8,1.6,1.5c1.7-0.3,3.3-0.8,4.8-1.6
	C26.2,45.5,27.7,40.7,29.4,35.6L29.4,35.6z M275.6,27c-0.2,0-0.4,0-0.4,0c-3.7,2.3-7,5-9.1,8.8c-1.2,2-1.5,4.4-0.9,6.6
	c0.4,1.6,0.7,1.8,2.3,1.2c2.4-1,4.3-2.8,5.3-5.2C274.4,34.8,275.4,31,275.6,27z M249.6,45.5l-0.4,0.1c0,1.4-0.1,2.9,0,4.3
	c0,3.5,1.1,7,3,10c1.1,1.6,2.7,2.7,4.5,3.2c0.7,0.2,1.3,0,1.4-0.7c0.3-1.5,0.4-3,0.3-4.5C257.4,52.5,253.5,49,249.6,45.5L249.6,45.5
	z M22.1,69.3c-0.8-2.6-2.7-4.7-5.2-5.7c-4.3-1.8-8.8-1.6-13.6-1c3.8,3.8,7.6,7,12.7,8C18.2,71.1,20.4,70.6,22.1,69.3z"/>
<path class="st0" d="M0,43.7c4.5,0.8,8.9,2,12.4,5.1c1.9,1.5,3,3.7,3.2,6.2c0.1,0.9-0.3,1.4-1.1,1.4c-1.4,0-2.8-0.2-4.1-0.6
	c-3.2-1.5-5.9-3.9-7.7-7c-0.9-1.5-1.8-3-2.7-4.4V43.7z"/>
<path class="st0" d="M242.3,0c2,0.9,4,1.7,6,2.8c2.6,1.2,4.8,3.1,6.4,5.4c1,1.4,1.6,3.1,1.6,4.8c0,0.7-0.2,1.1-1.1,1.2
	c-1.9,0.2-3.9-0.3-5.5-1.4c-4.3-3.2-6.5-7.7-7.7-12.7H242.3z"/>
<path class="st0" d="M15.4,0c1.8,2.8,3.5,5.6,4.3,8.8c1,3.8,1.1,7.5-1.9,10.6c-0.1,0.1-0.2,0.2-0.4,0.3c-2.6-1.3-3.7-3.7-4.1-6.4
	c-0.6-3.8,0.2-7.4,1.2-11.1c0.2-0.8,0.4-1.5,0.6-2.3L15.4,0z"/>
<path class="st0" d="M263.3,0c0.4,1.6,0.8,3.1,1.2,4.7c0.8,3.1,1,6.3,0.4,9.4c-0.4,2.4-1.8,4.5-3.9,5.7c-1.7-1.4-2.8-3.5-2.9-5.8
	c-0.3-5.1,1.8-9.3,4.5-13.4c0.1-0.2,0.3-0.4,0.5-0.6L263.3,0z"/>
<path class="st0" d="M36.3,0c-1,3.5-2.6,6.8-4.8,9.8c-2,2.5-4.4,4.3-7.8,4.3c-1.6,0-1.8-0.1-1.7-1.7c0.2-2.2,1.2-4.3,2.8-5.8
	c2.8-2.9,6.2-4.6,9.8-6C35,0.4,35.4,0.2,35.8,0H36.3z"/>
<path class="st0" d="M91.9,119.1c0.2-0.2,0.4-0.5,0.7-0.6c0.3-0.1,0.7-0.1,1,0c31.1,0,62.1,0,93.2,0c0.6,0.1,1.1,0.3,1.6,0.5
	c-0.5,0.2-1.1,0.3-1.6,0.4c-31.1,0-62.2,0-93.3,0h-1.4L91.9,119.1z"/>
<path class="st0" d="M241.5,15c2.8,0.3,5.6,0.5,8.3,0.9c3,0.3,5.7,1.7,7.8,3.8c0.7,0.8,1.2,1.8,1.6,2.8c0,0.4-0.2,0.9-0.5,1.1
	c-1.9,1-4.1,1.2-6.1,0.5c-3.1-0.9-5.8-2.6-8-5c-1.1-1.2-2.2-2.5-3.3-3.7L241.5,15z"/>
<path class="st0" d="M11.4,79.1c4.9-2.6,9.6-4.7,15.1-3.7c2,0.4,3.7,1.6,4.9,3.2c-1.1,2.1-3.1,2.9-5.2,3.4c-3.9,0.8-7.6,0-11.2-1.4
	C13.9,80.2,12.8,79.7,11.4,79.1z"/>
<path class="st0" d="M278.3,43.7c-2.9,5.5-5.7,10.7-12,12.5c-1.1,0.3-2.4-0.1-3.6-0.2c0-1.1,0.1-2.2,0.4-3.3c0.7-2,2-3.7,3.8-4.8
	C270.2,45.5,274.1,44.5,278.3,43.7z"/>
<path class="st0" d="M266.8,79.2c-5.2,2.3-10.2,4.3-15.8,2.6c-1.3-0.6-2.6-1.3-3.6-2.2c-0.6-0.4-0.5-1,0-1.5c2.5-2.7,5.7-3.1,9-2.7
	C260.1,75.9,263.6,77.2,266.8,79.2z"/>
<path class="st0" d="M36.8,15.5c-3.2,4.3-6.9,8-12.5,9c-1.7,0.3-3.5-0.1-5-1c-0.3-0.3-0.4-0.6-0.3-1c0.5-1.8,1.7-3.3,3.2-4.2
	c2.8-1.8,6-2.7,9.4-2.9c1.7-0.2,3.4-0.2,5.1-0.2L36.8,15.5z"/>
<path class="st0" d="M258.4,91.5c-5.5,0.3-10.4,0.1-15-2.6c-1.5-0.8-2.6-2.1-3.3-3.7c-0.4-0.9-0.3-1.4,0.7-1.8c2-0.9,4.3-1,6.4-0.3
	C251.9,84.5,255.1,87.7,258.4,91.5z"/>
<path class="st0" d="M16.3,35.6c0.1-2.5,1.4-4.8,3.4-6.2c3-2.4,6.6-3.4,10.3-4.2c0.9-0.2,1.8-0.3,2.9-0.5C30.1,29.9,27,34.6,21,36.1
	C19.4,36.5,17.7,36.3,16.3,35.6z"/>
<path class="st0" d="M47.8,106c1.7-4.3,3.8-8.3,7.6-11.2c1.8-1.4,4.1-2,6.3-1.8c1,0.1,1.4,0.5,1.3,1.5c-0.2,2-1.1,3.8-2.5,5.2
	c-2.9,3-6.6,4.6-10.5,5.8c-0.6,0.2-1.2,0.3-1.8,0.5C48,106.1,48,106.1,47.8,106z"/>
<path class="st0" d="M222.8,73.4c0.4,5,0.6,9.7-1.3,14.1c-0.7,1.7-1.9,3.2-3.6,4.2c-1.5,0.8-1.8,0.7-2.5-0.8
	c-0.9-1.9-1.1-4.1-0.5-6.2C216.2,80.1,219,76.7,222.8,73.4z"/>
<path class="st0" d="M230.6,106.2c-4.5-1.3-8.5-2.7-11.8-5.6c-2-1.5-3.2-3.8-3.4-6.3c0-0.9,0.3-1.2,1.2-1.3c2.5-0.2,5,0.5,6.9,2.2
	C226.9,98,228.9,101.9,230.6,106.2z"/>
<path class="st0" d="M55.5,73.3c4.3,4.2,8.1,8.2,8,14.4c-0.1,1.1-0.3,2.2-0.8,3.2c-0.6,1.5-1,1.7-2.3,0.7c-1.4-1-2.5-2.3-3.4-3.7
	C54.8,83.4,55,78.6,55.5,73.3z"/>
<path class="st0" d="M20.1,91.2c3.8-4.2,7.7-8.4,14-8.5c1.2,0.1,2.4,0.4,3.5,0.9c0.7,0.2,0.8,0.7,0.5,1.3c-0.6,1.5-1.6,2.9-3,3.8
	c-3.1,2.1-6.6,2.7-10.3,2.9c-1.6,0.1-3.1,0-4.7,0L20.1,91.2z"/>
<path class="st0" d="M245.3,24.7c4.9,0.7,9.5,1.7,13.3,4.7c1.7,1.2,2.8,3,3.2,5c0.2,0.9,0,1.3-1,1.6c-1.9,0.5-4,0.2-5.8-0.6
	C250.4,33.3,247.8,29.3,245.3,24.7z"/>
<path class="st0" d="M242.6,97.3c-5.3,0.3-10.2,0.6-14.8-1.9c-1.7-0.8-3-2.2-3.8-3.9c-0.3-0.5-0.2-1.1,0.3-1.4
	c0.1,0,0.1-0.1,0.2-0.1c2.1-1.1,4.6-1.4,6.9-0.6C235.9,90.7,239.2,93.6,242.6,97.3z"/>
<path class="st0" d="M270.9,12.3c0.1,4.3,0.1,8.3-1.2,12.2c-0.8,2.4-2.4,4.5-4.6,5.8c-1.4,0.8-1.9,0.6-2.5-0.9
	c-0.9-2.3-0.8-4.8,0.2-7.1C264.4,18.3,267.3,15.3,270.9,12.3z"/>
<path class="st0" d="M2.6,26.7c5,3.4,9.6,6.6,10.7,12.8c0.1,1.1,0,2.3-0.3,3.4c-0.1,1.2-0.9,1.3-1.8,1c-1.8-0.6-3.3-1.7-4.4-3.2
	c-2.4-3.3-3.3-7-3.9-10.9C2.8,28.8,2.8,27.9,2.6,26.7z"/>
<path class="st0" d="M248.9,35.6c5.2,2.2,10.1,4.3,12.9,9.2c1,1.5,1.3,3.4,0.8,5.2c-3.5,0.5-6.2-1-8.4-3.3
	C251.5,43.6,250.1,39.8,248.9,35.6z"/>
<path class="st0" d="M47,67.5c3,4.8,5.8,9.4,4.8,15.2c-0.3,1.9-1.3,3.5-2.8,4.7c-2.5-1.4-3.6-3.7-4-6.3C44.3,76.4,45.5,72.1,47,67.5
	z"/>
<path class="st0" d="M251,74c-3-1.2-4.4-3.4-5.2-6.3c-1.2-4.4-0.4-8.6,0.8-13.2c3.4,4.6,6.5,9,6.3,14.8C252.9,71,252.2,72.7,251,74z
	"/>
<path class="st0" d="M36,96.9c2.7-3,5.7-5.7,9.6-7.2c2.9-1.3,6.2-1,8.9,0.7c-0.5,2.1-1.9,3.9-3.8,4.8c-3.2,1.9-6.7,2.3-10.3,2.2
	c-1.4,0-2.9,0-4.3,0L36,96.9z"/>
<path class="st0" d="M28.9,45.3c0.2,5.7,0,11.1-3.7,15.5c-0.9,1.1-2.5,1.6-3.7,2.4c-0.8,0.4-1.2,0-1.5-0.7c-0.7-2.2-0.6-4.6,0.4-6.7
	c1.5-3.2,3.6-6.1,6.3-8.4C27.3,46.7,28,46.1,28.9,45.3z"/>
<path class="st0" d="M31.7,54.6c1.3,5,2.2,9.8,0.3,14.6c-0.8,2.2-2.5,4-4.7,4.8c-1.2-1-1.8-2.4-1.8-3.9c0-2.1,0.2-4.1,0.8-6.1
	C27.2,60.6,29.3,57.7,31.7,54.6z"/>
<path class="st0" d="M38,63.1c2.5,4.6,4.3,9.3,3.3,14.7c-0.4,2-1.6,3.9-3.3,5c-1.3-0.7-2.3-1.9-2.7-3.3c-1-2.8-1.1-6-0.2-8.8
	c0.7-2.5,1.6-5,2.5-7.5L38,63.1z"/>
<path class="st0" d="M231.2,67.5c1.6,4.9,2.8,9.5,1.8,14.3c-0.4,2.3-1.8,4.4-3.9,5.5c-2.7-2.3-3.3-5.3-2.9-8.5
	C226.7,74.7,228.8,71.2,231.2,67.5z"/>
<path class="st0" d="M274.9,62.7c-4.1,3.9-8.1,7.6-13.9,8c-1.4-0.1-2.7-0.3-4-0.8c-0.8-0.2-0.8-0.7-0.5-1.4c1.4-3.2,3.9-4.8,7.1-5.6
	C267.3,62,271.1,62,274.9,62.7z"/>
<path class="st0" d="M240.3,82.8c-3-2-3.8-4.9-3.7-8.1c0.1-4.2,1.6-8,3.9-12c0.9,2.5,1.8,4.7,2.4,6.9c0.9,2.8,1.1,5.8,0.4,8.6
	C243,80.1,241.9,81.8,240.3,82.8z"/>
<path class="st0" d="M7.7,12.6c4,3.6,7.9,7.3,8.4,13.1c0,1.4-0.2,2.8-0.7,4.1c-0.2,1.1-1,1.1-1.9,0.7c-1.9-0.9-3.4-2.4-4.2-4.4
	c-0.8-2-1.4-4-1.7-6.2c-0.4-2.4-0.3-4.8-0.4-7.2L7.7,12.6z"/>
<path class="st0" d="M29.4,35.6c-1.6,5.1-3.1,9.9-7.6,12.9c-1.5,0.8-3.1,1.3-4.8,1.6c-1.1,0.3-1.7-0.2-1.6-1.5c0.1-2.2,1-4.3,2.5-6
	C20.9,39.3,24.9,37.4,29.4,35.6z"/>
<path class="st0" d="M275.6,27c-0.2,4-1.1,7.9-2.8,11.5c-1,2.4-2.9,4.3-5.3,5.2c-1.6,0.6-1.9,0.4-2.3-1.2c-0.6-2.3-0.2-4.6,0.9-6.6
	c2.1-3.9,5.4-6.5,9.1-8.8C275.2,27,275.4,27,275.6,27z"/>
<path class="st0" d="M249.6,45.5c3.9,3.5,7.8,7,8.9,12.4c0.1,1.5,0,3-0.3,4.5c-0.1,0.8-0.6,1-1.4,0.7c-1.8-0.5-3.4-1.6-4.6-3.2
	c-1.9-3-3-6.5-3-10c-0.1-1.4,0-2.9,0-4.3L249.6,45.5z"/>
<path class="st0" d="M22.1,69.3c-1.7,1.4-4,1.9-6.1,1.3c-5.1-1-8.9-4.2-12.7-8c4.8-0.6,9.3-0.9,13.6,1
	C19.4,64.6,21.4,66.7,22.1,69.3z"/>
<path class="st0" d="M104,20.1h2.7l6.4,14.9h-3.7l-1.3-3.1h-5.8l-1.2,3.1h-3.6L104,20.1z M105.3,24.5l-1.8,4.6h3.6L105.3,24.5z"/>
<path class="st0" d="M112.6,20.1h3.6l2.4,9.5l0,0l3.1-9.5h3l3.1,9.8l0,0l2.5-9.8h3.3L129.3,35h-2.9l-3.3-10.3l0,0L119.8,35H117
	L112.6,20.1z"/>
<path class="st0" d="M139.5,20.1h2.7l6.5,14.9H145l-1.3-3.1h-5.8l-1.3,3.1h-3.6L139.5,20.1z M140.8,24.5l-1.8,4.6h3.6L140.8,24.5z"
	/>
<path class="st0" d="M150.2,20.1h5.8c0.7,0,1.4,0.1,2.1,0.2c0.6,0.1,1.2,0.4,1.8,0.7c0.5,0.4,0.9,0.8,1.2,1.4
	c0.3,0.7,0.5,1.4,0.4,2.2c0,1-0.3,1.9-0.8,2.7c-0.6,0.8-1.4,1.3-2.4,1.4l3.8,6.3h-3.9l-3.2-6h-1.6v6h-3.3L150.2,20.1z M153.4,26.3
	h1.9h0.9c0.3,0,0.6-0.1,0.9-0.2c0.3-0.1,0.5-0.3,0.7-0.5c0.2-0.3,0.3-0.6,0.3-0.9c0-0.3-0.1-0.6-0.2-0.9c-0.1-0.2-0.4-0.4-0.6-0.5
	c-0.3-0.1-0.5-0.2-0.8-0.2c-0.3,0-0.6-0.1-0.9-0.1h-2.1L153.4,26.3z"/>
<path class="st0" d="M163.8,20.1h4.9c1.1,0,2.3,0.1,3.4,0.4c1,0.2,2,0.7,2.8,1.3c0.8,0.6,1.5,1.4,1.9,2.3c0.5,1.1,0.7,2.3,0.7,3.5
	c0,1.1-0.2,2.2-0.7,3.2c-0.4,0.9-1,1.7-1.8,2.3c-0.8,0.6-1.7,1.1-2.7,1.4c-1,0.3-2.1,0.5-3.2,0.5h-5.4L163.8,20.1z M167,32h1.7
	c0.7,0,1.4-0.1,2.1-0.2c0.6-0.1,1.2-0.4,1.7-0.8c0.5-0.4,0.9-0.9,1.1-1.4c0.3-0.7,0.4-1.4,0.4-2.1c0-0.7-0.1-1.3-0.4-1.9
	c-0.3-0.5-0.6-1-1.1-1.3c-0.5-0.4-1-0.6-1.6-0.8c-0.7-0.2-1.3-0.3-2-0.3H167V32z"/>
<path class="st0" d="M93.7,45.3h3.6l2.4,9.5l0,0l3.1-9.5h3l3.1,9.8l0,0l2.5-9.8h3.3l-4.3,14.9h-2.9l-3.2-10.3l0,0L101,60.2h-2.8
	L93.7,45.3z"/>
<path class="st0" d="M116.2,45.3h3.3v14.9h-3.3V45.3z"/>
<path class="st0" d="M122.5,45.3h4.4l6.3,10.3l0,0V45.3h3.3v14.9h-4.3l-6.5-10.6l0,0v10.6h-3.3L122.5,45.3z"/>
<path class="st0" d="M139.6,45.3h4.4l6.3,10.3l0,0V45.3h3.3v14.9h-4.3l-6.4-10.6l0,0v10.6h-3.3L139.6,45.3z"/>
<path class="st0" d="M156.8,45.3h10.1v3h-6.8v2.8h6.4v3h-6.4v3h7.2v3h-10.5V45.3z"/>
<path class="st0" d="M169.9,45.3h5.8c0.7,0,1.4,0.1,2.1,0.2c0.6,0.1,1.2,0.4,1.8,0.7c0.5,0.4,0.9,0.8,1.2,1.4
	c0.3,0.7,0.5,1.4,0.4,2.2c0,1-0.3,1.9-0.8,2.7c-0.6,0.8-1.4,1.3-2.4,1.4l3.8,6.3h-3.9l-3.1-5.9h-1.6v5.9h-3.3L169.9,45.3z
	 M173.2,51.5h1.9h0.9c0.3,0,0.6-0.1,0.9-0.2c0.3-0.1,0.5-0.3,0.7-0.5c0.2-0.3,0.3-0.6,0.3-0.9c0-0.3-0.1-0.6-0.2-0.9
	c-0.1-0.2-0.4-0.4-0.6-0.5c-0.3-0.1-0.5-0.2-0.8-0.2c-0.3,0-0.6-0.1-0.9-0.1h-2.1L173.2,51.5z"/>
<path class="st0" d="M104.8,100c0,1.3-0.2,2.6-0.6,3.8c-0.4,1.1-1,2.1-1.9,3c-0.9,0.9-1.9,1.6-3.1,2c-2.8,1-5.8,1-8.6,0
	c-1.2-0.4-2.2-1.1-3.1-2c-0.8-0.9-1.5-1.9-1.9-3c-0.4-1.2-0.6-2.5-0.6-3.8V85.6h5.2v14.2c0,0.7,0.1,1.4,0.3,2c0.2,0.6,0.6,1.1,1,1.6
	c0.4,0.5,0.9,0.8,1.5,1.1c0.6,0.3,1.2,0.4,1.9,0.4c0.6,0,1.3-0.1,1.9-0.4c0.6-0.2,1.1-0.6,1.5-1.1c0.4-0.5,0.8-1,1-1.6
	c0.2-0.6,0.4-1.3,0.3-2V85.6h5.2L104.8,100z"/>
<path class="st0" d="M109.5,85.6h8.7c1.2,0,2.3,0.1,3.4,0.3c1,0.2,2,0.6,2.8,1.1c0.8,0.6,1.5,1.3,1.9,2.2c0.5,1.1,0.8,2.3,0.7,3.4
	c0,1.2-0.2,2.3-0.7,3.4c-0.4,0.9-1,1.6-1.8,2.2c-0.8,0.6-1.8,1-2.7,1.2c-1.1,0.2-2.3,0.4-3.4,0.3h-3.8v9.1h-5.2V85.6z M114.7,95.5
	h3.4c0.4,0,0.9,0,1.3-0.1c0.4-0.1,0.8-0.2,1.2-0.4c0.3-0.2,0.6-0.5,0.8-0.9c0.2-0.4,0.3-0.9,0.3-1.4c0-0.5-0.1-1-0.4-1.4
	c-0.3-0.4-0.6-0.7-1.1-0.8c-0.5-0.2-0.9-0.3-1.4-0.4c-0.5-0.1-1-0.1-1.5-0.1h-2.6L114.7,95.5z"/>
<path class="st0" d="M145.6,91.7c-0.5-0.6-1.1-1.1-1.9-1.4c-0.8-0.3-1.7-0.5-2.6-0.5c-1.8,0-3.6,0.8-4.8,2.1
	c-0.6,0.7-1.1,1.5-1.4,2.4c-0.7,1.9-0.7,4.1,0,6c0.3,0.9,0.8,1.7,1.4,2.4c0.6,0.7,1.3,1.2,2.1,1.6c0.8,0.4,1.7,0.6,2.6,0.6
	c1,0,1.9-0.2,2.8-0.7c0.8-0.4,1.5-1.1,2-1.8l4.3,3.2c-0.9,1.4-2.2,2.4-3.8,3.1c-1.5,0.7-3.1,1-4.7,1c-1.7,0-3.4-0.3-5-0.9
	c-1.5-0.5-2.8-1.4-4-2.5c-1.2-1.1-2.1-2.4-2.7-3.9c-1.3-3.3-1.3-6.9,0-10.2c0.6-1.5,1.5-2.8,2.6-3.9c1.2-1.1,2.5-1.9,4-2.5
	c1.6-0.6,3.3-0.9,5-0.9c0.7,0,1.4,0.1,2.1,0.2c0.7,0.1,1.4,0.3,2.1,0.6c0.7,0.3,1.4,0.6,2,1.1c0.7,0.5,1.2,1,1.7,1.6L145.6,91.7z"/>
<path class="st0" d="M153.1,85.6H169v4.8h-10.7v4.4h10.1v4.8h-10.1v4.8h11.3v4.8h-16.5V85.6z"/>
<path class="st0" d="M181.4,85.6h4.3l10.2,23.4H190l-2-5h-9.1l-1.9,5h-5.7L181.4,85.6z M183.4,92.4l-2.8,7.3h5.7L183.4,92.4z"/>
<g>
	<path class="st0" d="M58.6,153.7l8.5-7.7c0.4-0.4,0.9-0.8,1.3-1.3c0.4-0.5,0.7-1.1,0.7-1.7c0-0.7-0.3-1.3-0.8-1.8
		c-0.5-0.4-1.2-0.6-1.9-0.6c-0.9,0-1.5,0.3-2,0.8c-0.5,0.5-0.8,1.2-0.8,2l-4.7-0.3c0.1-1.1,0.3-2.1,0.7-3c0.4-0.8,1-1.5,1.6-2.1
		c0.7-0.6,1.5-1,2.4-1.3c0.9-0.3,1.9-0.4,3-0.4c1,0,1.9,0.1,2.8,0.4c0.9,0.3,1.6,0.7,2.3,1.2c0.6,0.5,1.1,1.2,1.5,2.1
		c0.4,0.8,0.5,1.8,0.5,2.9c0,0.7-0.1,1.3-0.2,1.9c-0.1,0.6-0.3,1.1-0.6,1.5c-0.3,0.5-0.6,0.9-0.9,1.3c-0.4,0.4-0.7,0.8-1.1,1.1
		l-6.7,5.7h9.7v4.1H58.6V153.7z"/>
	<path class="st0" d="M76.4,147.6c0-1.3,0.1-2.6,0.4-4c0.2-1.3,0.7-2.6,1.3-3.7c0.6-1.1,1.4-2,2.5-2.7s2.4-1,4-1c1.6,0,3,0.3,4,1
		c1.1,0.7,1.9,1.6,2.5,2.7c0.6,1.1,1,2.3,1.3,3.7c0.2,1.3,0.4,2.7,0.4,4c0,1.3-0.1,2.6-0.4,4c-0.2,1.3-0.7,2.6-1.3,3.7
		c-0.6,1.1-1.4,2-2.5,2.7c-1.1,0.7-2.4,1-4,1c-1.6,0-3-0.3-4-1c-1.1-0.7-1.9-1.6-2.5-2.7c-0.6-1.1-1-2.3-1.3-3.7
		C76.6,150.2,76.4,148.9,76.4,147.6z M81.1,147.6c0,0.6,0,1.3,0.1,2.1c0.1,0.8,0.2,1.6,0.4,2.3c0.2,0.7,0.6,1.4,1,1.9s1.1,0.8,2,0.8
		c0.8,0,1.5-0.3,2-0.8c0.5-0.5,0.8-1.1,1.1-1.9c0.2-0.7,0.4-1.5,0.4-2.3c0.1-0.8,0.1-1.5,0.1-2.1c0-0.6,0-1.3-0.1-2.1
		c-0.1-0.8-0.2-1.6-0.4-2.3c-0.2-0.7-0.6-1.4-1.1-1.9c-0.5-0.5-1.1-0.8-2-0.8c-0.8,0-1.5,0.3-2,0.8s-0.8,1.1-1,1.9
		c-0.2,0.7-0.4,1.5-0.4,2.3C81.1,146.3,81.1,147,81.1,147.6z"/>
	<path class="st0" d="M94.8,147.6c0-1.3,0.1-2.6,0.4-4c0.2-1.3,0.7-2.6,1.3-3.7c0.6-1.1,1.4-2,2.5-2.7s2.4-1,4-1c1.6,0,3,0.3,4,1
		c1.1,0.7,1.9,1.6,2.5,2.7c0.6,1.1,1,2.3,1.3,3.7c0.2,1.3,0.4,2.7,0.4,4c0,1.3-0.1,2.6-0.4,4c-0.2,1.3-0.7,2.6-1.3,3.7
		c-0.6,1.1-1.4,2-2.5,2.7c-1.1,0.7-2.4,1-4,1c-1.6,0-3-0.3-4-1c-1.1-0.7-1.9-1.6-2.5-2.7c-0.6-1.1-1-2.3-1.3-3.7
		C94.9,150.2,94.8,148.9,94.8,147.6z M99.4,147.6c0,0.6,0,1.3,0.1,2.1c0.1,0.8,0.2,1.6,0.4,2.3c0.2,0.7,0.6,1.4,1,1.9s1.1,0.8,2,0.8
		c0.8,0,1.5-0.3,2-0.8c0.5-0.5,0.8-1.1,1.1-1.9c0.2-0.7,0.4-1.5,0.4-2.3c0.1-0.8,0.1-1.5,0.1-2.1c0-0.6,0-1.3-0.1-2.1
		c-0.1-0.8-0.2-1.6-0.4-2.3c-0.2-0.7-0.6-1.4-1.1-1.9c-0.5-0.5-1.1-0.8-2-0.8c-0.8,0-1.5,0.3-2,0.8s-0.8,1.1-1,1.9
		c-0.2,0.7-0.4,1.5-0.4,2.3C99.5,146.3,99.4,147,99.4,147.6z"/>
	<path class="st0" d="M128.1,140.7h-8.7l-0.1,3.4c0.5-0.2,1.1-0.2,2-0.2c1.1,0,2.1,0.2,3.1,0.5c0.9,0.3,1.7,0.8,2.4,1.4
		c0.7,0.6,1.2,1.4,1.6,2.3c0.4,0.9,0.6,1.9,0.6,3c0,1.2-0.2,2.3-0.6,3.3c-0.4,1-1,1.8-1.8,2.5c-0.7,0.7-1.6,1.2-2.7,1.5
		c-1,0.4-2.1,0.5-3.3,0.5c-1.9,0-3.5-0.5-4.8-1.4c-1.3-0.9-2.2-2.3-2.6-4.2l4.9-1.1c0.1,0.8,0.5,1.4,1,1.9c0.5,0.5,1.2,0.7,2,0.7
		c1,0,1.8-0.3,2.4-0.9c0.6-0.6,0.9-1.4,0.9-2.4c0-0.7-0.2-1.3-0.4-1.8c-0.3-0.5-0.7-0.8-1.2-1.1c-0.5-0.3-1-0.5-1.6-0.6
		c-0.6-0.1-1.2-0.2-1.8-0.2c-0.8,0-1.5,0.1-2.3,0.2c-0.8,0.1-1.5,0.3-2.2,0.6l0.2-12.1h13.3V140.7z"/>
	<path class="st0" d="M130.5,149H146v3.7h-15.5V149z"/>
	<path class="st0" d="M147.5,153.7l8.5-7.7c0.4-0.4,0.9-0.8,1.3-1.3c0.4-0.5,0.7-1.1,0.7-1.7c0-0.7-0.3-1.3-0.8-1.8
		c-0.5-0.4-1.2-0.6-1.9-0.6c-0.9,0-1.5,0.3-2,0.8c-0.5,0.5-0.8,1.2-0.8,2l-4.7-0.3c0.1-1.1,0.3-2.1,0.7-3c0.4-0.8,1-1.5,1.6-2.1
		c0.7-0.6,1.5-1,2.4-1.3s1.9-0.4,3-0.4c1,0,1.9,0.1,2.8,0.4c0.9,0.3,1.6,0.7,2.3,1.2c0.6,0.5,1.1,1.2,1.5,2.1
		c0.4,0.8,0.5,1.8,0.5,2.9c0,0.7-0.1,1.3-0.2,1.9c-0.1,0.6-0.3,1.1-0.6,1.5c-0.3,0.5-0.6,0.9-0.9,1.3s-0.7,0.8-1.1,1.1l-6.7,5.7h9.7
		v4.1h-15.3V153.7z"/>
	<path class="st0" d="M165.3,147.6c0-1.3,0.1-2.6,0.4-4c0.2-1.3,0.7-2.6,1.3-3.7c0.6-1.1,1.4-2,2.5-2.7c1.1-0.7,2.4-1,4-1
		c1.6,0,3,0.3,4,1c1.1,0.7,1.9,1.6,2.5,2.7s1,2.3,1.3,3.7c0.2,1.3,0.4,2.7,0.4,4c0,1.3-0.1,2.6-0.4,4c-0.2,1.3-0.7,2.6-1.3,3.7
		s-1.4,2-2.5,2.7c-1.1,0.7-2.4,1-4,1c-1.6,0-3-0.3-4-1c-1.1-0.7-1.9-1.6-2.5-2.7c-0.6-1.1-1-2.3-1.3-3.7S165.3,148.9,165.3,147.6z
		 M170,147.6c0,0.6,0,1.3,0.1,2.1c0.1,0.8,0.2,1.6,0.4,2.3c0.2,0.7,0.6,1.4,1,1.9s1.1,0.8,2,0.8c0.8,0,1.5-0.3,2-0.8
		c0.5-0.5,0.8-1.1,1.1-1.9s0.4-1.5,0.4-2.3c0.1-0.8,0.1-1.5,0.1-2.1c0-0.6,0-1.3-0.1-2.1c-0.1-0.8-0.2-1.6-0.4-2.3s-0.6-1.4-1.1-1.9
		c-0.5-0.5-1.1-0.8-2-0.8c-0.8,0-1.5,0.3-2,0.8s-0.8,1.1-1,1.9c-0.2,0.7-0.4,1.5-0.4,2.3C170,146.3,170,147,170,147.6z"/>
	<path class="st0" d="M191.6,141.9l-4.4,3.9l-2.6-3l7.2-6h4.3v21.9h-4.5V141.9z"/>
	<path class="st0" d="M213,140.9h-10.8v-4.3h16.1v4.1l-8.8,17.9H204L213,140.9z"/>
</g>
</svg>
