<svg id="Layer_2" data-name="Layer 2" xmlns="http://www.w3.org/2000/svg" viewBox="0 0 252.59 338.31"><defs><style>.cls-1{fill:#fff;}</style></defs><title>Berklee-Logo-Stacked-White</title><path class="cls-1" d="M136.28,110.1,81.59,130a2.26,2.26,0,0,0-1.48,2.12v35.69a2.26,2.26,0,0,0,3,2.12l50.19-18.27a9.09,9.09,0,0,0,6-8.54V112.22a2.26,2.26,0,0,0-3-2.12"/><path class="cls-1" d="M139.31,183.41l-68.15,24.8A20.47,20.47,0,0,1,43.68,189V0H7.25V241.34H139.31V183.41"/><path class="cls-1" d="M80.11,0V83.65A9.09,9.09,0,0,0,92.3,92.18l56-20.37a20.47,20.47,0,0,1,27.48,19.24V241.34h72.86V0H80.11"/><path class="cls-1" d="M0,333.63A37.83,37.83,0,0,1,6.48,333V289A37.57,37.57,0,0,1,0,288.35v-4.68H21.82c10.17,0,18,3.61,18,13.45,0,6.56-3.86,10.83-9.84,12.39v.16c6.73,1.15,12.22,5.58,12.22,13.21,0,11-8.45,15.42-20.67,15.42H0v-4.68m13.78-26.41H21c8,0,11.4-3.2,11.4-9.27s-3.94-8.7-11.24-8.7H13.78Zm0,25.43h7.55c9.11,0,13.29-3.12,13.29-9.84,0-6.4-3.77-10.25-12.88-10.25h-8Z"/><path class="cls-1" d="M47.67,319.11c0-13,7.71-21.25,18.7-21.25,9.68,0,15.34,6.65,15.34,17.06,0,1-.08,3-.16,3.86H55.13c.08,9.27,4.51,14.93,12.8,14.93A18.18,18.18,0,0,0,78,330.35l2.54,4.92a23.91,23.91,0,0,1-13.86,4c-12.31,0-19-8.45-19-20.18m26.82-5.33c0-5.83-2.3-10.67-8.78-10.67-5.82,0-9.68,4.18-10.34,10.67Z"/><path class="cls-1" d="M85.66,333.63a36.75,36.75,0,0,1,6.4-.66v-29c-2.62-.25-5.17-.33-6.4-.33V299a118.37,118.37,0,0,1,13.54-.66l-.33,7.22H99c1.48-3.45,5.09-7.71,10.33-7.71a10.3,10.3,0,0,1,4.43.82l-1.72,6.48a7.55,7.55,0,0,0-3.61-.74c-5.33,0-8.86,5.83-9.52,7.14V333a48.59,48.59,0,0,1,7.22.66v4.68H85.66v-4.68"/><path class="cls-1" d="M112.9,333.63a35.63,35.63,0,0,1,6.32-.66V284.66c-2.62-.25-5.17-.33-6.4-.33v-4.68c2.3-.25,7.88-.66,13.7-.66l-.41,6.48V333a27.33,27.33,0,0,1,5.58.66v4.68H112.9v-4.68m12.7-15.05L139.8,304.1a32.65,32.65,0,0,1-4.84-.66v-4.59h18.7v4.59a39.93,39.93,0,0,1-6.07.66l-21.72,21.39Z"/><path class="cls-1" d="M159.39,333.63a35.64,35.64,0,0,1,6.32-.66V284.66c-2.62-.25-5.17-.33-6.4-.33v-4.68c2.3-.25,7.88-.66,13.7-.66l-.41,6.48V333a35.64,35.64,0,0,1,6.32.66v4.68H159.39v-4.68"/><path class="cls-1" d="M180.23,319.11c0-13,7.71-21.25,18.7-21.25,9.68,0,15.34,6.65,15.34,17.06,0,1-.08,3-.16,3.86H187.7c.08,9.27,4.51,14.93,12.8,14.93a18.18,18.18,0,0,0,10.09-3.36l2.54,4.92a23.92,23.92,0,0,1-13.86,4c-12.31,0-19-8.45-19-20.18m26.82-5.33c0-5.83-2.3-10.67-8.78-10.67-5.82,0-9.68,4.18-10.34,10.67Z"/><path class="cls-1" d="M218.55,319.11c0-13,7.71-21.25,18.7-21.25,9.68,0,15.34,6.65,15.34,17.06,0,1-.08,3-.16,3.86H226c.08,9.27,4.51,14.93,12.8,14.93a18.17,18.17,0,0,0,10.09-3.36l2.54,4.92a23.91,23.91,0,0,1-13.86,4c-12.3,0-19-8.45-19-20.18m26.82-5.33c0-5.83-2.3-10.67-8.78-10.67-5.82,0-9.68,4.18-10.34,10.67Z"/><path class="cls-1" d="M136.16,314.23l7.29,11.42a32.63,32.63,0,0,0,4.78,6.16c1.78,1.62,3.6,1.52,5.46,1.52a9.72,9.72,0,0,0,2-.16l.37,5a21.26,21.26,0,0,1-4.05.49c-3.89,0-6.41-.94-8.44-2.72a29.78,29.78,0,0,1-4.54-5.83l-7.61-12,4.71-3.86"/></svg>