<?xml version="1.0" encoding="utf-8"?>
<!-- Generator: Adobe Illustrator 21.0.0, SVG Export Plug-In . SVG Version: 6.00 Build 0)  -->
<svg version="1.0" id="Layer_1" xmlns="http://www.w3.org/2000/svg" xmlns:xlink="http://www.w3.org/1999/xlink" x="0px" y="0px"
	 viewBox="0 0 369.5 414.2" style="enable-background:new 0 0 369.5 414.2;" xml:space="preserve">
<style type="text/css">
	.st0{fill:#91CDB4;}
	.st1{fill:#FFF3BF;}
</style>
<g transform="matrix( 1, 0, 0, 1, 0,0) ">
	<g>
		<g id="Layer30_0_FILL">
			<path d="M197.8,293.9c-4.2-2.5-4.2,5.5-4.5,7.8c-1.1,9.8-0.5,20.1-0.2,29.8c0.2,6.7-0.9,12.8-1.2,19.3c-0.4,9.9,0,19.9-1,29.7
				c-0.4,4.2-0.5,8.6-0.5,12.9c0,2.2,1.5,10.7,0.1,12.9c-2.8,4.2-5.2,0.7-6.1-1.9c-1.1-3.1-0.4-7.2-0.5-10.4
				c-0.4-8.2-1.9-16.3-2.2-24.5c-0.3-7.7-2-14.7-2.8-22.3c-1.4-14.1-1-28.7-2.8-42.6c-0.3-2.4,0-17.7-6-11.5
				c-2.8,2.9-0.3,12.6,0.2,16.8c1.5,13.9,0.3,28.3,3,42c3.3,17.1,2.3,34.8,5,52c0.2,1.5,0.8,3.1,0.8,4.6c-4.4,0-19-4.6-19.1,2.4
				c-0.1,5.6,16.7,3.4,20.6,3.1c6.5-0.4,14.8,1,15.7-6.6c0.4-3.4,0-7,0-10.5c0.2-24.4,2.6-48.7,2-73c-0.2-7.4-0.1-14.8,0.3-22.2
				C198.8,299.6,199.9,295.5,197.8,293.9 M240.9,292.3c-2.2-6.6-4.7,4.7-4.8,6.6c-0.5,5.2,0,10.4,0.5,15.5c1.7,18.6,2.5,38,2.5,56.8
				c0,5.2,0.5,10.2,0.8,15.2c0.3,4.4,1.3,12.3,0.5,16.3c-0.9,4.2-2.5,2.8-7.3,3.5c-2.5-26-4.1-52.1-6-78.3
				c-0.7-9.1-2.3-17.9-2.4-27.1c0-2,0.3-14.7-4.7-11.9c-3.4,1.9-1.2,17-1.1,19.4c1.1,22.4,4.1,45.2,5.2,67.7c0.3,6.7,0.9,13,2,19.4
				c0.7,4.4-1,11.1,1.4,14.9c1.5,2.4,3,2,6,2c6.5,0.1,13.3-0.5,19.9-0.7c2.4-0.1,12.8,1.2,10.8-4.2c-2.3-6.2-15,1.9-17.5-1.9
				c-0.4-0.7-0.3-4.1-0.3-5.2c-0.2-5.1,0.3-10.3-0.1-15.3c-1.5-19.5-2.4-39.3-2.8-59c-0.2-9.6-2-18.8-2.2-28.4
				C241,295.8,240.9,294,240.9,292.3"/>
		</g>
	</g>
</g>
<g transform="matrix( 0.5552978515625, 0, 0, 0.5552978515625, 609.05,512.95) ">
	<g transform="matrix( 1, 0, 0, 1, 0,0) ">
		<g>
			<g id="musiccomposition_2_Layer0_0_FILL">
				<path class="st0" d="M-898.7-399.3c5.4,4.9,0.4,15.1,0.4,20.9c61.4-10.2,124.7,2.5,186.4-2.2c44.6-3.4,90.2-3.5,134.6-10
					c-12.4,0-24.8-2.4-37.6-2.4c-15.8,0-31.6,0-47.3,0c-28.4,0-56,2.3-84.3,2.2c-30.3-0.2-60-1.1-90.3-1.4c-8-0.1-33.7,3.9-38.7-2.7
					c-1.8-2.3,0.6-6.9-0.4-9.5c-7.4,0.5-18.1-1-23.8,4.8C-899.5-399.7-899.1-399.5-898.7-399.3 M-762.9-415.4
					c-16.6,5.1-36.9,2-54,3.9c-13,1.4-28.6,1.2-41.1,4.7c-9.4,2.7-6,2.7,2.8,2.8c10.6,0.1,21.3,0.2,31.9,0.4
					c22.2,0.2,44.1,1.1,66.3,1.1c41.2,0,81.8-2.4,123.2-2.4c11.9,0,23.8-0.3,35.6,0c8.7,0.3,16.7,2.4,25.5,2.4c1.8,0,3.5,0,5.3,0
					c5.3,1.8,7,0,5.3-5.2c1.4-4.2,0-11.3,0-15.7c0-9.1,0-18.2,0-27.3c-4.2,0.3-12.5-0.8-16,1.6c-2.4,1.6-1.9,2.8-2,6.3
					c0,4.2,1.5,8.7,1.5,13.3c-27.3,0-54.2,4.3-81.4,6.8C-694-419.4-728.6-417.7-762.9-415.4 M-597.2-873.2
					c-16.1,0-9.2,22.3-7.8,33.3c1,7.9,1.7,15.6,3.1,23.5c4.4,24.4-0.3,50.4,4.7,74.6c5.6,27.3,2,55.5,4.9,83.4
					c0.4,3.6,1.7,7.5,2.1,11.1c2.1,17.8,0.8,36.6,0.8,54.6c0,13,1.9,26.3,3.1,39.3c2.9,31.1,6.2,61,6.2,93.2
					c3.4,0.1,7.3-1.2,10.8-1.5c-2.7-8.2-0.9-19.5-2.2-27.9c-1.1-6.8-1-13.7-2-20.6c-2-14.4-1.9-29.8-3.1-44.1
					c-0.9-9.5-2.1-18.9-3.1-28.2c-1.4-13.6,0.1-27.6-2-41.1c-1.6-11.1-3.2-21-3.2-32.9c0-28.9-6.2-56.7-6.2-85.8
					c0-15-1.8-29.8-3.1-44.6C-596.7-814.9-597.2-844.4-597.2-873.2 M-583.1-872.4c-1.1-0.6-2.3-0.9-3.5-0.8
					c0,36.7,1.7,73.3,4.7,109.6c2.2,26.4,0.9,55,6.2,81c2.8,13.7,1.1,28.4,2.3,42.3c0.7,7.6,2.1,14.7,2.8,22.3
					c2.1,23.3,2.8,45.8,5.3,68.7c1.6,14.6,0.1,29.7,1.4,44c0.8,9.2,3.2,18,3.2,27.4c2.6-9.6,0.3-23.8,0.3-33.8c0-11.1,0-22.2,0-33.3
					c0-24.3,0-48.6,0-72.9c0-29.5-0.2-59-1.8-88.4c-1.5-29.3-1.3-59.1-1.3-88.7c0-10,1.3-19.5,1.5-29.4c0.3-10.9,0-21.8,0-32.8
					c0-2.1,1.6-13.4,0-15.1C-563.9-874.1-579.9-872.3-583.1-872.4z"/>
				<path class="st1" d="M-915.2-875.9c0-0.1,0.1-0.3,0.1-0.4c-2,0.2-2.5,0.7-4.5,0c0-0.6-4.7,3.6-5.1,4.7c-1.2,2.9,0.6,5.7,0.8,8.6
					c1.6,22.7-0.8,46.5-0.8,69.3c0,46.7,1.6,93.5,1.5,139.8c-0.1,36.7-1.4,74.1-4.3,110.5c-2,25.3-0.4,51.6-0.4,77
					c0,14.7,0,29.4,0,44.1c0,8.2,2,14.4-3.1,19.5c0,4.1,51.6,1.2,55.6-3.4c4.7-5.3,0.5-17,4.4-22.4c-2.9,0.7-6.2,0.3-9,1
					c3.8-0.9-4.5,0.5-4.4,0.5c-0.6,0.1-1.2,2.2-2,2.4c-7.8,1.4-7.9-0.7-9-7.5c-1.4-8.6-1.2-17.3-3.1-25.8
					c-2.8-12.4-3.2-26.6-3.2-39.6c0-20.2-3.7-40.8-1.5-61.4c3.1-29.2-1-59.8-4-89.2c-2-20.2-1.9-42.1-1.9-62.2
					c0-17.7-3.1-34.4-3.1-52.5C-912-801.2-915.2-838-915.2-875.9 M-765.2-414.6c16.3-5.4,36.7-3.6,53.7-4.6
					c17-1.1,34.3-1.7,51.3-3.3c27.4-2.6,54.4-7,81.8-7c0-7-1.5-12.7-1.5-19.6c-30.9,0.6-60.4,2.9-90.8,7
					c-35.6,4.7-71.5,1.2-107.3,4.3c-11.5,1-23.4,2.5-34.9,4.2c-7.5,1.1-15.1,2.3-22.7,2.9c-5.8,0.5-14.6-1.4-20,0.9
					c-5,2.2-4.2,5.1-5.5,10.8c-0.8,3.7-2.8,9.2-2.8,12.9c14.1-0.8,28.8-2.6,42.7-5C-803.1-414.2-783.5-413.6-765.2-414.6
					 M-704.9-893.6c-16,4.6-34.9,4.2-51.4,5.7c-17.7,1.6-35.9,4.3-53.6,4.7c-17.9,0.4-34.3,4.2-51.8,6.7c-7.3,1.1-14.2,2.2-21.3,3.7
					c-3.7,0.8-20,1.7-21.5,3.5c-2.3,2.8,0,17.5,0,21c0,7.4,0.5,14.8,1.2,21.7c1,10,1.9,20.5,1.9,30.5c0,17.7-0.3,35.5,1.6,52.9
					c1.3,12.7-0.1,25.4,1.6,38.1c3.1,23.1,2.6,48.4,4.9,71.7c2.5,24.9,5.1,51.9,2.5,76.9c-1.7,16.1,0.2,32.3,0.8,48.2
					c0.5,12.4,0.1,24.2,1.5,36.4c0.6,5.6,2.3,11.5,3,17c0.3,2.5-0.1,5.1,0.2,7.6c0.9,7.8,2.6,11,11.8,9.4c3.5-0.6,6.1-2.8,9.4-3
					c1.6-0.1,2.8,1.9,4,1.9c2.4,0,4.4-1.1,6.6-1.2c16.3-0.9,32.4-2.9,48.5-4.7c38.5-4.3,77.9-5.6,116.6-6.9
					c17.8-0.6,34.9-4.4,52.4-6.1c11.3-1.1,22.6-1.5,34-1.8c5.2-0.1,11.6,0.8,16.6-0.3c5.2-1.1,3.4,1.4,5.5-2.8
					c1.2-2.5,0-11.2,0-13.7c0-18.2-1.2-36.4-3.1-54.4c-1.2-11.4-3.7-22.9-4.7-34.7c-2.3-27.8,3-58.9-3.1-86.3
					c-4.4-19.6-2.6-42.2-3.1-62.2c-0.3-11.8-3.2-23-4.5-34.7c-2.2-19.9-1.1-40.7-2.5-60.5c-0.8-10.2-2.6-20.4-3.9-30.5
					c-1.6-12.7-2-25.9-3.6-38.6c-0.5-4.3-0.3-12.8-2.5-16.5c-5.4-8.9-21.6-2.8-30.1-1.9C-662.3-894.6-683.7-894.5-704.9-893.6
					 M-646.4-835.3c2.9-0.5,11.7,0.3,9.4,4.9c-2.6,5.2-28.9,5.1-32.3,5.3c-20.3,1.2-40.3,2.2-60.4,5.5c-19.1,3.2-38.7,8.4-58,8.7
					c-7.7,0.1-8.5,1.6-11.5,7.8c-1.2,2.5-2.3,5.1-3.5,7.6c-2,4.7-5.8,10.4-5.8,15.2c53.2-7.2,105.8-18.2,159.4-22.5
					c4.3-0.3,12.4-1.7,11.6,5.2c-0.9,7.8-16.6,6.1-21.4,6.6c-22.6,1.9-45.4,7.3-68.1,9.7c-26.8,2.8-53.3,9.3-80.3,11.4
					c0,5,0.6,10.3,0.6,15.5c26.8-5.4,56.2-6.2,83.6-8.9c13.1-1.3,26.1-0.9,39.1-2.7c13.3-1.8,26.7-5.4,40.1-6.1
					c4.9-0.2,16.8,1.6,10.2,9c-2.9,3.2-13.2,2.7-17.3,3.2c-6.6,0.7-13,2.3-19.6,3.2c-21.5,2.8-42.7,3.6-64.2,5.5
					c-9.7,0.9-19.2,2.7-28.8,3.6c-5.8,0.6-39.6-0.3-42.7,5c-2.6,4.7,19.6,3.8,24.5,8.5c2.8,2.7,4.9,7.9,4.9,11.8
					c20,0,41.2-3.7,60.9-6.9c21.7-3.5,43.4-10.2,65.2-12.4c4-0.4,21.7-5.6,20.1,4.6c-1,6.5-13.2,5.8-17.4,6.1
					c-22.6,2.1-45.2,9.5-68,12.7c-13,1.8-25.8,3.6-39.1,4.5c-2.2,0.2-4.5,0.5-6.8,0.6c-2.9,0-5.8,0.2-8.6,0.5
					c-4.3-1.2-5.9,0-4.8,3.8c-1.1,2.6-0.8,9.6-0.8,13c21.6-2,43.2-3,64.6-6.5c13.9-2.3,27.3-3.6,41.3-4.7c9.2-0.7,29.7-6.8,37.5-1.4
					c4.8,3.4,3.2,7.3-1,10.1c-4.1,2.6-20,0.8-25.5,1.5c-6.1,0.8-12.4,1.5-18.3,1.8c-13.5,0.8-26.8,3.1-40.1,5.2
					c-10.4,1.6-20.9,2.7-31.3,3.6c-9.1,0.8-24.9-1.4-33.3,2.4c-6.5,2.9-8.6,8.2-16.8,9.5c-5.5,0.9-17.3-2.9-21.3-0.8
					c-1.6,0.8-2.2,3.9-3.3,5.3c-2.3,2.8-18.7,20.3-23.3,13.5c-2.8-4.2,7.3-9,10-11.8c3.2-3.3,4.9-8.3,7.9-11.4
					c-10.6,2-28.6,7.1-31.6-5.4c-1.5-6.2-0.2-15.3-0.2-22c0-11.9-0.3-23.3-1-35c-0.9-13.7-3.7-27.3-4.5-41.1
					c-0.4-6.4-0.7-13.4-0.5-19.7c0.1-4.4-0.3-6.1,3.1-8.8c2.8-2.2,9.8-1.4,13.4-1.8c8.1-1.1,16-3.5,24.1-4.5
					c-4.3-8.7,0.3-24.2,7.8-29.5c19.9-13.9,26,10.1,26,25.3c28.1-1.1,54.9-9.6,82.9-11.8c18.3-1.5,38.6,0.9,56.5-2.2
					C-650.7-835.4-648.7-835.3-646.4-835.3 M-752.7-631.9c-11.3,2.4-23.7,0.4-35,3.4c4.9,3.2,8.7,7.7,11.3,12.8
					c3.8,7.2,1.4,8.6,11.5,8.1c35-1.9,69.7-7.1,104.8-9.4c5.3-0.3,22.7-4.4,27.2,0.3c6.1,6.3-7.5,6.8-11.2,7.5
					c-22.1,4.1-45.3,5.9-67.8,7.6c-7.9,0.6-15.9,1.7-23.9,2.6c-8.4,1-24.3-1.3-31.1,2.7c-6.1,3.5-1.9,12.9-4.4,20.3
					c16.3-4.7,35.3-4.5,52.2-6.8c16.4-2.3,33.4-1.5,49.9-3.8c5.6-0.8,48.2-11.2,43.8,2c-2,5.9-40.5,8.2-48.2,9
					c-14.7,1.5-29.8,1.5-44.5,3.4c-16.9,2.2-35,3.1-51.5,6.8c-8.3,1.8-6.8,3.2-10.5,10c-1.4,2.5-6.8,8.2-6.8,10.9
					c39-5,78.4-9.4,117.5-12c2.6-0.2,48.5-5.8,46.2,3c-1.8,7-27.1,6.2-30.7,6.4c-13.1,0.7-26.5,1.1-39.6,2.4
					c-16.5,1.7-33.3,3.6-49.8,5.6c-12,1.5-24,2.7-36,4.1c-6.1,0.7-10.1,0.1-13.6,4.1c-3.3,3.7-6.9,14.4-6.9,19.2
					c15.9-1.9,32.1-2.4,48-3.9c20.5-1.9,41.5-3.5,62-4.8c10.2-0.7,19.9-2.6,30.1-3.4c7.2-0.6,14.4-0.4,21.6-1
					c3.9-0.3,13.5-3.3,17.2-2.2c4.3,1.4,7.4,5.2,4,9.5c-3.5,4.4-19.2,3.6-24.3,4c-9.8,0.7-19.5,0.8-29.2,2.1c-21,2.9-42.5,5.8-64,6
					c-17.4,0.1-35.3,2.2-52.6,3.6c-11.8,0.9-23.6,2.2-35.3,3.4c-5.6,0.6-16.9,4.3-21.1-0.5c-3.5-4-3.5-15.3-4.7-20.6
					c-1.5-6.9-2.7-13.7-3.8-20.5c-3.9-24.7-2.7-50.2-5.2-75.2c-0.4-4.4-2.7-13.1-0.2-16.7c3.1-4.5,11.7-3.9,16.5-4.2
					c12.3-0.9,24.7-1.5,37-2c30.9-1.4,61.6-5.7,92.5-7c23.5-1,47.2-0.8,70.2-5c3.5,0.3,14.2,0.1,11.8,6c-1.6,3.9-15.7,4.3-19.8,5.2
					C-683.2-631.7-718.5-637.3-752.7-631.9 M-763.5-622.7L-763.5-622.7c6.6,1,5.2,10.1-1.7,9.6
					C-773.3-613.7-770.9-621.7-763.5-622.7 M-761.9-592.5c6.4,0,6,9.2,0.2,10C-770.4-581.1-768-591.2-761.9-592.5 M-822.4-528.9
					c-3.8,1.9-11.4,1.8-16,2.3c1,3.9,1.9,7.7,2.8,11.5c0.3,1.1,0.1,4.9,0.8,5.6c3.2,3.1,22.4-0.9,26.3-1.3c-4.5-4.5,0.5-16.5,4-20.8
					C-810.6-531-816.3-529.5-822.4-528.9 M-813.2-560c-6.1,4.1-21.8,3.4-29.4,3.3c0,3.9-0.6,12.2,1.8,15.8c2.7,4.1,0.4,3.5,8.2,2.5
					c8.5-1.1,27.6-0.7,33.4-5.9c3.7-3.3,9-14.3,10.7-19.1C-796.6-562.7-805-560.9-813.2-560 M-780.5-594.5
					c-20.6,2.6-40.5,5.4-61.1,7.9c1.1,1.6-2.4,0.8-3.4,0.7c0,5.9,1.6,12.3,1.6,18c10.5-2.1,23.2-2.1,34.3-3.6c7.7-1,23.6-0.1,27-6.2
					C-779.8-581.6-780.5-590.1-780.5-594.5 M-813.6-616.7c-6.8,0.5-14.4,20.6-18.3,8.3c-2.2-7,7.9-17,14.2-18.2
					c-5.7,0.3-27-0.1-29.4,3.6c-0.1,0.2,0.5,5.4,0.6,6.1c0.5,6.4,1.6,12.8,1.5,19.3c20.4,0,41-5.2,61.2-7.6
					c-2.1-2.8-2.5-6.7-4.8-9.5C-795.4-623.1-803.9-617.3-813.6-616.7 M-806.9-708.2c0,5.9-3.7,10.8-4.8,16.3
					c6.8-0.2,21.1,1.1,24.9-4.5c2.2-3.2,0.9-11.6,0.9-14.8C-789.7-710.8-805.7-711.8-806.9-708.2 M-792.4-727.3
					c-5.4-5.4-15.2-0.8-13,6.9c5.9-0.5,12-1.4,17.9-1.4C-788.2-724.6-789.9-726.2-792.4-727.3 M-829.1-708.2
					c-6.4,1.4,2.9,18.4,7.3,16.2c0.7-0.3,3.3-8.7,3.5-9.7C-816.6-710.4-819.3-708.3-829.1-708.2 M-849.4-707.2c0,2.9,0,5.7,0,8.7
					c-0.1,10.8,1,10.3,13,9c-4.3-4.3-5.9-11.7-5.9-17.6C-844.3-706.6-847.5-707.2-849.4-707.2 M-839.2-738.3c0,0-10.8,0-11-0.1
					c0,7,0.8,14.2,0.8,21.4c8.4-1.2,6.6-2.4,7.5-9.9c0.1-1.2,0.7-2.6,1-3.8C-840.5-732.7-839.2-736.4-839.2-738.3 M-816.1-742.2
					c-10.1,1-11.5,1.2-13.5,9.6c-1.1,4.7-1.9,9.5-1.9,14.4c7.4-0.8,4.3-2.1,6.9-7c0.9-1.7,1.1-3.4,2.3-5
					C-818.2-735.7-816.1-734.7-816.1-742.2 M-817.5-763.8c-1.7,3.3-3,9.3-5.5,11.9c5.2-0.6,4.2,0.2,5.9-2.9
					C-816.2-756.4-818.1-763.2-817.5-763.8 M-844.1-766.9c-3.1,0.8-6,0.5-9.2,0.5c0,6.3,2.3,12.2,2.3,18.3c7.8-1.5,12,0.9,16.2-4.9
					c1-1.4,1.6-3.7,2.3-5.3c1.3-2.7,2.8-7.8,4.9-9.8C-833-768.1-838.5-767.1-844.1-766.9 M-849.2-801.8c-1.4,1.6-3.4,1.8-6,0.8
					c2.3,6.9,1.4,17.2,1.3,24.3c6.7-0.6,28.8,0.7,32.5-3.3c2.3-2.5,0.7-6.3,0.4-9.1c-0.7-5.8-3.1-11.6-3.2-17.4
					C-832.3-806.5-841.1-802.5-849.2-801.8 M-808.7-808.4c0.1-0.2,0.2-0.4,0.4-0.5c-1.8,0.3-3.6,0.6-5.5,0.9c0,2.4,1.5,4.9,1.5,7.3
					C-811.2-800.8-809-807.5-808.7-808.4 M-812-838.4c-5.3,5.3-3.3,12.3-3.3,19.3c11.4-1.6,14.8-2.8,11.3-14.6
					C-805.6-839.2-806.7-841.1-812-838.4z"/>
				<path d="M-536.5-885.7c-7-10.5-38.9-2.4-50.1-1.2c0-8.7,2.2-24.9-3.6-32.8c-2.3-3.2-4.5-3.5-8.2-3.8c-10-0.8-23.7,1.6-34.1,2.5
					c-33.3,2.6-66.6,7-99.8,10.5c-31.7,3.4-63.6,10.9-95,16.7c-16.6,3-33.4,5.2-49.8,8.6c-6.9,1.4-13.6,3.3-20.6,4.1
					c-3.1,0.4-12.6-0.8-15.5,1.8c-4.4,4-1.8,16.8-1.9,22c-0.4,16.3,0.1,32.2,1.5,48.1c2.5,28.3,2,58.2,4.7,85.8
					c2.9,29.9,0.3,60.5,3.1,90.4c1.2,12.6,2.8,25.3,2.8,38.2c0,16.6,0,33.6,0,50.5c0,29.3,0.3,59.8,4.7,88.1
					c1.3,8.4,1.5,16.9,3.1,25.2c1.2,6.2,2.4,7.5,9,6.3c1.2-0.2,2.9-2.5,4.3-2.9c3.3-0.9,7.5-0.1,11.1-1c-2,2.8-1.3,9-2,12.4
					c-1,4.4-3,9.5-3.2,14.1c-0.4,12.8,10.1,9.5,21.1,9.6c21.5,0.2,43.2,0.5,64.4,1.4c41.1,1.7,81.4-2,122.2-2c21.7,0,43.4,0,65.1,0
					c7.5,0,13.3,1.3,20.4,2.4c5.8,0.8,27,2.9,31.7-0.5c8.5-6,3.5-31.7,3.5-41.6c0-20.7,1.7-42.2,0-62.9c-2.2-27.5-1.9-55.9,0-83.4
					c3.6-53,4.7-106.2,4.7-160c0-19.8,0.7-38.3,3.5-57.4C-535-825.6-536.5-855.9-536.5-885.7 M-547.1-877.1c0,29,0.5,57.5-3.5,85.7
					c-5.6,39.1-2.7,80.5-2.7,120.4c0,27.9-0.8,57.6-4.7,85.2c-5.8,40.6,0,83.1,0,123.8c-6.1-3.1-3.2-21-3.9-27.8
					c-0.7-7.7-1.1-14.6-1.5-22.3c-1.3-24.3-3.4-49.2-5.9-72.8c-1.5-14.4-1-29.5-2.3-43.5c-1.3-14-1.1-28.1-2.4-42.3
					c-0.9-10.6-1.9-21.1-3.1-31.7c-1.9-16.7-2.1-32.8-3.1-49.9c-0.8-13.6-2.5-27.4-3.7-41.1c-2.6-28.1-2.5-57.5-2.5-86
					C-573-878.6-559.8-877.7-547.1-877.1 M-688.8-905.3c28.5-7.6,60.2-3.5,88.5-10.8c0,3.9,0.8,7.2,1.5,10.8
					c2.5,12.1,1.5,25.2,1.5,37.9c0,26.8,0.7,54.5,3.2,80.8c3.1,33.2,2.3,66.8,6.2,99.9c2.8,22.9,4.2,46.8,6.5,69.9
					c1.5,14.5,1.1,29.6,2.9,44c1.7,14.1,3.5,27.8,3.5,42.3c0,12.5,1.6,23.8,3.5,35.9c1.6,10.3-1,23.3,2.2,33.2
					c-23.2,1.9-46.8,1.5-70,3.8c-19.8,2-39.1,5.4-59.1,6.7c-40.4,2.6-80.8,3.4-121,7.8c-9.8,1.1-19.6,2.3-29.4,3
					c-4.8,0.4-10.5-0.6-14.4-0.3c-5.3,0.4-9.6,3.8-15.7,2.7c-7-1.2-3.4-0.1-5.1-5.9c-0.6-2-1.3-3.4-1.5-5.3
					c-2.6-16.7-4.7-33.9-4.7-51.1c0-33.6-1.5-67.5-1.5-101c0-24.3-4.7-47.3-4.7-71.7c0-30.9-5.1-60.4-5.1-91.2
					c0-32.9-2.8-64.2-3.5-96.7c-0.2-7.2-1.2-6.7,3.7-9.2c3.7-1.9,12.2-1.3,16.7-2.1c8.3-1.5,16.3-3.6,25-4.7
					c17.1-2.2,34.1-7.5,51.3-9.8c18.6-2.5,37.6-5.8,56-10.3c10.2-2.6,20.2-3.3,30.5-4.7C-711-903-699.8-905.8-688.8-905.3
					 M-793.8-435.8c20.6-4.1,42.1-0.9,63-2.3c20.3-1.3,41.4-1,61.6-4.1c36.9-5.7,73.8-6.1,111.1-8.8c0,16.2,0,32.3,0,48.5
					c-19.6,0-38.2-2.4-57.8-2.4c-23.7,0-47.5,0-71.2,0c-19.6,0-38.5,2.4-58.3,2.4c-23.1,0-46.1-0.8-69.1-1
					c-8.5-0.1-47.3,3.1-49.4-3.1c-0.8-2.5,2.6-11.3,3.1-14.1c2.1-10,3.6-9.6,15.2-9.6C-829.2-430.3-809.4-431.9-793.8-435.8
					 M-761.9-592.6c0,2.1-12.3,7-2.1,10C-755.9-580.2-754.9-592.6-761.9-592.6 M-763.5-622.8c-7.7-0.1-9.3,8.1-2.2,9.4
					C-758-612-756.9-621.7-763.5-622.8 M-754.1-631.7c19.1,0,38.7-2.2,57.8-3.2c15-0.8,29.9-0.7,44.9-3.4c4.1-0.7,19.7-1.9,21.7-5.4
					c3.3-6-8.5-6.1-11.5-6.3c-46.7,9.1-96.3,4.6-143.8,10.6c-11.6,1.5-23.1,1.1-34.8,2c-9.4,0.7-22.7-0.3-31.5,2.8
					c-7.9,2.8-6.9,6.5-6.4,14.8c1.7,24.6,1.9,49.8,4.4,74.3c1.4,13.3,4.2,29,8,41.7c3.2,10.7,13.1,6.8,22.9,5.7
					c22.8-2.4,45.7-2.9,68.3-5.7c19.6-2.4,39.4-2.3,59.2-4.7c18-2.1,35.6-3.4,53.6-4.8c4.3-0.3,31.2,0.8,25-10.5
					c-2.5-4.5-7.3-2.3-11.4-2c-15.1,1.3-30.2,1.6-45.2,3.8c-42,6-84.7,5.4-126.9,10.4c0-5,3.1-12.7,6-16.9c0.8-1.2,0.7-3.2,1.9-4.1
					c5.8-4.8,22.4-3.5,30.2-4.4c18.9-2.1,38-2.9,56.7-5.6c12.4-1.8,24.7-2.7,37.2-3.8c9.4-0.8,18.7-1.1,28.1-1.8
					c3-0.2,11.8-0.7,14.4-3.6c8.8-9.5-23-5.9-26.3-5.8c-44.9,1.3-90.5,7.2-135.2,13c0-2.4,8.9-17.8,11-19.5c8.3-6.7,33-4,43.7-5.6
					c16.2-2.3,32.3-3.9,48.7-5.3c9.1-0.8,18-2,27-3.2c6.4-0.8,24.1-0.4,28.6-3.8c4.6-3.4,2.8-7.2-1.8-9.2c-7.4-3.3-25.9,2-33.7,3.2
					c-14.9,2.5-30.1,3.7-45.2,4.3c-9.5,0.4-18.4,2.7-27.8,3.6c-11.6,1.1-23.7,0.7-35,3.9c1.6-4.9-1.5-14.8,1.5-19.1
					c2.2-3.2,13.5-2,17.2-2.1c9.4-0.3,18.8-1.9,28.1-3c24.1-2.7,49.1-3.9,73-7.7c3.9-0.6,21.1-1.2,20.5-6.5
					c-0.6-5.8-15-3.5-18.6-3.3c-31.2,2.1-62.3,6.2-93.4,9.4c-6.8,0.7-26,3.8-30.5-0.3c-1.3-1.2-1.5-4.4-2.3-5.9
					c-2.9-5.5-6.6-10.4-12-14C-777.1-631.3-764.9-631.2-754.1-631.7 M-815-616.5c9.5-1.4,19.4-6.5,26.2,1.5c2.5,2.9,2.8,6.9,5,9.8
					c-20.2,2.4-40.8,7.6-61.2,7.6c0-6.5-1-12.9-1.5-19.3c-0.1-0.8-0.8-5.9-0.6-6.1c2.4-3.8,23.5-3.3,29.4-3.6
					c-6.2,1.2-16.2,11-14.3,18C-829.1-598-819.1-612.4-815-616.5 M-781.3-594.4c0.3,0,0.5-0.1,0.8-0.1c0,4.4,0.7,13-1.5,16.8
					c-3.3,5.9-19.7,5.3-27,6.2c-11,1.5-23.8,1.5-34.3,3.6c0-5.7-1.6-12.1-1.6-18c0.9,0.1,4.4,0.9,3.4-0.7
					C-821.8-589.1-800.6-589.6-781.3-594.4 M-813.8-559.6c4.9-3.3,19.1-3.3,25.2-3.7c-1.6,4.8-6.9,15.8-10.7,19.1
					c-5.5,4.9-22.7,4.4-30.7,5.5c-7.4,1.1-7.9,2.6-10.9-1.8c-2.4-3.5-1.8-12.4-1.8-16.1C-832.8-556.5-823.5-558.8-813.8-559.6
					 M-823.2-528.5c4.5-2.3,14-2.6,18.8-3c-3.4,4.3-8.4,16.3-4,20.8c-4.4,0.5-22.8,4.6-26.3,1.6c-0.7-0.6-0.6-4.9-0.8-5.9
					c-0.9-3.9-1.9-7.7-2.8-11.5C-833.3-527.1-828.3-528-823.2-528.5 M-645.2-835.5c-2.6,0.5-5.2,0.1-7.8-0.2
					c-17.9,3.1-38.2,0.7-56.5,2.2c-28,2.2-54.8,10.7-82.9,11.8c0-15.3-6.2-39-26-25.3c-7.5,5.2-12.1,20.8-7.8,29.5
					c-10.1,1.2-25.1,2.1-34.4,5.6c-3.9,1.5-4.7,1.3-6.2,5c-1.4,3.5,0.4,9.6,0.5,13.2c0.4,9.6,1,18.8,1.8,28.2
					c1.3,16.7,3.9,32.7,3.9,49.6c0,7.4,0,14.6,0,22c0,4.1-1.6,11.4,1.8,14.7c5,4.9,23.3,1.1,29.9-0.2c-2.6,2.6-4.4,7.2-7,10.2
					c-2.2,2.6-11.1,7.8-11.4,10.3c-1.5,11.6,20.1-6.6,20.8-7.4c1.4-1.6,2.9-4.5,4.3-5.8c3.9-3.4,1.1-2.3,6.5-2.8
					c8.2-0.7,16.2,2.5,24.3-1.5c2.9-1.4,4.8-4,7.6-5.5c11.9-6.7,33.5-4.1,47.6-5.5c25-2.4,49.8-6.4,74.6-9.1
					c6.5-0.7,35.7,3.5,31.7-9.3c-3.2-10.1-61.2,0.2-70.5,1.6c-25.3,3.8-50.1,6-75.6,8.3c0-3.4-0.4-10.4,0.8-13
					c-1.1-3.7,0.5-5,4.8-3.8c2.2-0.3,4.5-0.5,6.7-0.5c2.9-0.2,5.8-0.5,8.7-0.7c13.3-1,26.1-2.7,39.1-4.5c22.8-3.1,45.4-10.5,68-12.7
					c4.1-0.4,16.4,0.3,17.4-6.1c1.6-10.1-16.1-5-20.1-4.6c-21.8,2.2-43.4,8.9-65.2,12.4c-19.7,3.2-40.9,6.9-60.9,6.9
					c0-3.1-1.5-7.9-3.5-10.2c-2.6-3-7.3-5-11.2-6c-4-1-12.7,1-14.5-1.3c-4.3-5.5,20.2-6.4,23.8-6.6c13.2-0.8,26-2.1,39-3.7
					c33.9-4,68.5-4.9,101.5-11.2c4.8-0.9,13.6-2.6,8.2-9.4c-4.2-5.3-22.7,0-28.1,0.9c-13.3,2.2-26.6,5-40.1,5.8
					c-16.6,0.9-32.7,2.2-49.1,4.1c-18.5,2.2-37.7,1.8-56,5.5c0-5.1-0.6-10.5-0.6-15.5c24.4-1.9,48.3-8.9,72.5-11.1
					c21.3-1.9,42.6-5.9,63.8-8.6c2-0.3,47.6-3.7,30.1-13.5c-4.7-2.6-16.9,1.2-21.9,1.6c-7.8,0.7-15.1,2.3-22.7,3.1
					c-14.4,1.6-28.7,3.8-43,6c-26.7,4.1-53.3,8.6-80,12.2c0-4.7,3.6-10.3,5.6-14.9c1.1-2.5,2.3-5.2,3.5-7.6c2.7-5.5,3-7,9.1-8.1
					c39.4-6.9,80.1-11.8,120.1-14.1c5.5-0.3,28,0.4,32.5-5C-633.8-834.4-642.1-835.2-645.2-835.5 M-812.6-837.8
					c5.2-4.3,6.6-1.4,8.5,3.6c0.9,2.5,1.3,5,1,7.7c-1,7.8-2.9,6.2-12.1,7.5C-815.3-825.2-817.4-833-812.6-837.8 M-808.3-809
					c-0.6,1-2.7,8.2-3.9,8.2c0-2.4-1.5-4.9-1.5-7.3C-811.9-808.4-810.1-808.7-808.3-809 M-849.6-801.4c1.7-1.7,21.5-5.1,25.4-5.1
					c0,5.8,2.5,11.6,3.2,17.4c0.3,2.8,1.9,6.2-0.3,8.8c-3.6,4.2-25.8,3-32.6,3.6c0-7.1,0.9-17.4-1.3-24.3
					C-853.4-801.2-851.5-801.3-849.6-801.4 M-844.9-766.7c4.8-1.2,12.5-1.4,17.4-1.4c-2,2-3.6,7.2-4.9,9.8c-0.7,1.5-1.2,3.3-2.1,4.7
					c-4.5,6.4-7.7,3.8-16.5,5.5c0-6.2-2.3-12-2.3-18.3C-850.5-766.5-847.7-766-844.9-766.7 M-817.9-763.2c-2.8,4.2,5.8,9.9-5.2,11.3
					C-820.9-754.1-818.8-760.2-817.9-763.2 M-823.2-741.3c2.4-0.4,4.7-0.7,7-0.9c0,7.5-2.1,6.6-6.2,11.9c-1.1,1.5-1.3,3.2-2.2,4.7
					c-3.1,5.1,1.5,6.4-7,7.3C-831.6-725-830.6-740.3-823.2-741.3 M-839.2-738.4c0,2-1.3,5.4-1.7,7.4c-0.2,1.2-0.9,2.6-1.1,3.8
					c-0.9,7.7,1.1,9-7.5,10.2c0-7.3-0.7-14.4-0.8-21.4C-848.3-737.5-840.6-738.4-839.2-738.4 M-849.4-706.4c0-1.8,5.7-0.4,7.1-0.7
					c0,5.9,1.6,13.3,5.9,17.6C-856.7-687.4-845.2-693.8-849.4-706.4 M-830-708c9.9-2,12.9-2.2,12,5.8c-0.1,1.2-2.6,9-3.6,9.7
					C-827.4-688.6-833.5-707.4-830-708 M-792.8-727.7c2.2,2.2,4.5,2.4,5.3,5.9c-5.9,0-12,0.9-17.9,1.4
					C-808-730-799.5-728.7-792.8-727.7 M-806.9-707.6c0-4.4,17.2-3.2,21-3.5c0,3.7,1.3,11.4-0.9,14.8c-3.7,5.6-18.2,4.3-24.9,4.5
					C-810.8-696.8-808.5-702.8-806.9-707.6z"/>
			</g>
		</g>
	</g>
</g>
<g transform="matrix( 1, 0, 0, 1, 407.7,444.7) ">
	<g transform="matrix( 1, 0, 0, 1, 0,0) ">
		<g>
			<g id="waving_arms_0_Layer1_0_FILL">
				<path d="M-365.8-346.6c-1.3-3.8-3.3-8.8-5.6-12c-4.7-6.3-9.1-1.9-10,3.8c-0.6,3.8-1,7.9-0.5,11.8c0.5,3.8,2.6,8.2,2.6,12
					c-3-3.4-6-7-8.2-11.1c-2-3.7-4.5-10-8.9-11.4c-13.8-4.5-6.6,17.9-4.5,23c1.9,4.9,5.1,9.3,8.8,13c-8.1,0.7-19.7,5.2-14.5,15.4
					c3.5,7,13,10.5,20.3,10.8c5.4,0.2,8.8-1.3,13.2-4.1c4.5-2.9,5.5-6,8.4-1.6c3.4,5.2,4.7,11.9,8.2,17.2c4,6.1,8.5,11.6,13,17.2
					c3.3,4.2,7,8,11.2,11.2c6.6,5.2,13.9,9.8,21.2,14c2.4,1.4,12,8.1,14.9,6.1c4.5-3-10.8-11-12.6-12.3
					c-8.5-5.8-17.5-10.9-24.8-18.4c-9.7-10.1-17.6-21.9-23.1-34.5c-1.3-2.9-2.5-7.2-3.9-9.6c-2.7-4.8-2.7-4.2-1.6-9.6
					C-360.2-326.1-363.3-336.6-365.8-346.6 M-374.7-348.8c3.6,5.3,7,18.6,5.4,25.1c-1.2-4.7-3.2-9.2-4.2-13.9
					C-374.1-340.3-373.8-347-374.7-348.8 M-398.2-345.7c0,0.4,3.3,5.4,3.9,6.5c1.4,2.7,3.4,5.3,5.2,7.7c3.8,4.8,9.6,9.8,12.4,15.2
					C-387.1-312.8-398.2-337.6-398.2-345.7 M-376.6-306.5c2,0,4.1,0.3,5.9-0.8c1.4,1.8-5.3,5.2-7,6.2c-3.9,2.3-8.3,3.5-12.9,2.3
					c-2.1-0.5-10.7-4.7-10-8.4c0.8-4,8.5-3.1,11.1-3C-384.4-309.9-381.5-307.2-376.6-306.5z"/>
			</g>
		</g>
	</g>
	<g transform="matrix( 1, 0, 0, 1, 0,0) ">
		<g>
			<g id="waving_arms_0_Layer0_0_FILL">
				<path d="M-81.2-201.2c-2.5-2.5-4-6.5-6.2-9.3c-2.3-3-5-5.5-7.5-8.2c-2.3-2.5-7.9-7.2-11.5-6.2c-6.4,1.9,1,5.8,3.2,7.7
					c9.9,8.2,18,21.1,21.7,33.4c3.8,13.1,6.4,25.4,8.8,38.6c0.5,2.8,1.1,5.3,1.1,8.2c0,1.9,0.5,2.2-0.1,3.9c-0.5,1.5-2.2,2.7-3,4.1
					c-2.9,5-4,10.9-4.9,16.5c-0.8,5.2-2.5,13.5,0.2,18.4c3.2,5.9,9,2.7,11.3-1.9c0.4-0.7,3-9,2.4-9c0,4.9,9.9,17,13,9.6
					c1.5-3.6,0.3-16.5-1.7-20.4c3.6,0,12.5,15.5,16.2,5c1.1-3.2-1.1-8.3-2.4-11.1c-1.9-4-4.4-7.7-7.5-10.9
					c-3.6-3.8-11.4-10.5-16.7-9.6c0-6.4-2.1-14.1-3.6-20.3c-2.1-8.8-4.1-17.9-7.2-26.4C-77-193.4-79.3-197.2-81.2-201.2
					 M-65.9-131.1c0.1-0.1,0.2-0.1,0.4-0.2c0,1.6,3.2,5,3.8,6.8c0.8,2.3,1.1,4.9,1.4,7.3c0.5,3.2,3.3,11.4,1.8,14.3
					c-2.9-1-4.2-12.5-4.9-15.5c-0.5-2.1-0.4-4.3-0.8-6.4C-64.7-126.9-67.5-130.1-65.9-131.1 M-71.5-120.6c0.2,5.8,1.2,16.9-2.5,22.5
					C-77.2-102.8-72.7-115.6-71.5-120.6 M-53.2-129.8c4,4,7.7,9.1,9.1,14.7c-2.2,1.1-17.4-17.7-15.7-19.3
					C-58.7-135.1-54.2-130.6-53.2-129.8z"/>
			</g>
		</g>
	</g>
</g>
<g id="___camera___instance" transform="matrix( 1, 0, 0, 1, 960,540) ">
</g>
</svg>
